PathFileType	4	(X/Y/Z)	./resultDataOpenSim/trcMotMarkerGrf/sub06/qtm-13-08.trc
DataRate	CameraRate	NumFrames	NumMarkers	Units	OrigDataRate	OrigDataStartFrame	OrigNumFrames
250.000000	250.000000	9	24	m	250.000000	66	523
Frame#	Time	L.Toe.Tip			R.Toe.Tip			L.Ankle.Lat			R.Ankle.Lat			L.Ankle.Med			R.Ankle.Med			L.Heel			R.Heel			L.Knee.Lat			R.Knee.Lat			L.Knee.Med			R.Knee.Med			L.Thigh.Upper			R.Thigh.Upper			L.ASIS			R.ASIS			V.Sacral			L.Acromium			R.Acromium			C7			L.Elbow			R.Elbow			L.Wrist.Lat			R.Wrist.Lat
		X1	Y1	Z1	X2	Y2	Z2	X3	Y3	Z3	X4	Y4	Z4	X5	Y5	Z5	X6	Y6	Z6	X7	Y7	Z7	X8	Y8	Z8	X9	Y9	Z9	X10	Y10	Z10	X11	Y11	Z11	X12	Y12	Z12	X13	Y13	Z13	X14	Y14	Z14	X15	Y15	Z15	X16	Y16	Z16	X17	Y17	Z17	X18	Y18	Z18	X19	Y19	Z19	X20	Y20	Z20	X21	Y21	Z21	X22	Y22	Z22	X23	Y23	Z23	X24	Y24	Z24

66	0.26	-1.4702007	0.052801821	-0.10828566	-0.73371819	0.03769295	0.068985595	-1.4653525	0.18448464	-0.13606386	-0.86733915	0.062137806	0.088843583	-1.4459827	0.18303277	-0.054834436	-0.85108155	0.079546347	0.0014146796	-1.5072431	0.23960978	-0.082681556	-0.92311552	0.037134774	0.025762802	-1.1319945	0.3766879	-0.15713363	-0.84547894	0.44797737	0.11102547	-1.1257875	0.36068233	-0.040208425	-0.88470247	0.43047725	-0.0096887804	-1.0728991	0.75969539	-0.16704805	-1.0173105	0.78159732	0.1759684	-0.98776174	0.80925978	-0.13267204	-0.94618958	0.8346403	0.10443799	-1.1516005	0.89666478	0.013253256	-1.0154651	1.3090247	-0.16997476	-1.0223849	1.2799827	0.19078818	-1.0928521	1.3364775	0.0095127015	-1.0180062	0.98561624	-0.24885296	-1.1630507	0.99745948	0.22883483	-0.79679562	0.87409307	-0.20705051	-1.1046313	0.76664179	0.25973854
67	0.264	-1.4635302	0.055294077	-0.10809064	-0.7335218	0.0373861	0.069095374	-1.4551104	0.18735286	-0.13584894	-0.86699713	0.061873957	0.088831181	-1.4352775	0.18558274	-0.054832039	-0.85063135	0.079468171	0.001463877	-1.4952194	0.24399258	-0.083759329	-0.92304279	0.03718644	0.025763178	-1.1199882	0.37635133	-0.15774324	-0.84174049	0.44736329	0.11200552	-1.1133305	0.35985262	-0.040835764	-0.88014109	0.43008783	-0.0092221224	-1.0656997	0.76062153	-0.16631554	-1.011766	0.78237339	0.17636727	-0.9808386	0.81018557	-0.13173529	-0.93895211	0.83543597	0.10547866	-1.144738	0.89751994	0.014311619	-1.0093903	1.3099326	-0.16950394	-1.0157711	1.2808315	0.19125361	-1.0867352	1.3374847	0.010108069	-1.0132651	0.98658055	-0.2477557	-1.1557038	0.99768219	0.22988178	-0.79273397	0.87317166	-0.20670633	-1.0953888	0.76720276	0.26069182
68	0.268	-1.4558467	0.058073149	-0.10778204	-0.73338393	0.037142519	0.069178812	-1.4447533	0.19019887	-0.1355867	-0.86672847	0.061657312	0.088807332	-1.4242203	0.18825651	-0.054830734	-0.85025988	0.079455414	0.0015220598	-1.4832973	0.24782397	-0.083992817	-0.92300181	0.037221517	0.025771312	-1.1078893	0.37611012	-0.15834142	-0.83839201	0.44683762	0.11313811	-1.1008289	0.35931927	-0.041380447	-0.87605546	0.42974893	-0.0086882883	-1.0585699	0.76165177	-0.16559531	-1.0057018	0.78335026	0.17682287	-0.97399265	0.81118985	-0.13094725	-0.93190279	0.83618648	0.10652894	-1.1380385	0.89849233	0.015094527	-1.0033832	1.3108597	-0.16908175	-1.0091724	1.2817187	0.19170496	-1.0805873	1.3385805	0.010708075	-1.0085898	0.98755092	-0.24672118	-1.1484367	0.99783888	0.23086524	-0.78886124	0.87223831	-0.20644607	-1.0857123	0.76788173	0.26168371
69	0.272	-1.446932	0.061116377	-0.10744418	-0.73328252	0.036952195	0.0691989	-1.4340386	0.19302548	-0.13536734	-0.86659987	0.061517308	0.088740086	-1.4131288	0.1909919	-0.054728623	-0.84996196	0.079486246	0.0015674501	-1.4716544	0.25121764	-0.083696901	-0.92298574	0.037240739	0.025784363	-1.0956553	0.37597574	-0.15893802	-0.83537762	0.44642542	0.11436835	-1.088315	0.35908813	-0.041847764	-0.87242466	0.42948918	-0.0081092909	-1.0514977	0.76275405	-0.16488278	-0.99841655	0.78456666	0.17760963	-0.96722629	0.81228	-0.1302836	-0.92546601	0.83685369	0.10745443	-1.1316629	0.89964503	0.015312414	-0.99743835	1.3118127	-0.16870481	-1.002602	1.2826502	0.19214597	-1.0744103	1.3397603	0.011314318	-1.0039117	0.98854052	-0.24566602	-1.1411666	0.99799111	0.23184371	-0.78517375	0.87129292	-0.2062549	-1.0757199	0.76865349	0.26269313
70	0.276	-1.4367682	0.064268567	-0.10711852	-0.73320835	0.036800867	0.06918921	-1.4227249	0.19582591	-0.13524972	-0.86669034	0.061425663	0.088629316	-1.4023985	0.19367722	-0.054331813	-0.8497141	0.079545213	0.0016059906	-1.4603224	0.25429483	-0.083212281	-0.92298846	0.037249354	0.025799482	-1.0832701	0.37596371	-0.15952675	-0.83251404	0.44608106	0.11554543	-1.0758762	0.35914847	-0.04220474	-0.86918453	0.42933011	-0.0074701992	-1.0444697	0.76390005	-0.16417861	-0.99049274	0.78587388	0.17861213	-0.96054275	0.81345139	-0.12970887	-0.91961714	0.83746837	0.10821609	-1.1254871	0.90096731	0.015131976	-0.99155976	1.3128082	-0.16836984	-0.99607375	1.283636	0.19257562	-1.0682164	1.3410199	0.011922596	-0.99913593	0.98956417	-0.24445112	-1.1337949	0.99822849	0.23290876	-0.78156179	0.87034554	-0.2060839	-1.0656474	0.76947664	0.2636856
71	0.28	-1.4254709	0.067357441	-0.10680475	-0.73316135	0.036678048	0.069203161	-1.410958	0.19860905	-0.13516628	-0.86702099	0.061338218	0.088500646	-1.3919239	0.19632371	-0.053649628	-0.84949463	0.07962333	0.001654547	-1.4491746	0.25713868	-0.082740981	-0.92300333	0.037254755	0.025815585	-1.0707901	0.37609281	-0.16008035	-0.82964458	0.4457096	0.11653799	-1.0635273	0.35948371	-0.042437216	-0.86623129	0.42929698	-0.0067505065	-1.0374718	0.76507625	-0.16348644	-0.98344312	0.78700462	0.1794216	-0.95394409	0.81469194	-0.12918926	-0.91398913	0.8381005	0.10890885	-1.11899	0.9023247	0.015456198	-0.98575496	1.3138633	-0.16806643	-0.98960698	1.2846917	0.19299403	-1.0620238	1.3423481	0.012522731	-0.99430559	0.9906145	-0.2431279	-1.126325	0.99859951	0.23409994	-0.77788639	0.86941647	-0.20588871	-1.0556995	0.77032867	0.26463965
72	0.284	-1.4132067	0.070260792	-0.10646897	-0.7331444	0.036579638	0.069266402	-1.39912	0.20134243	-0.13497642	-0.86747516	0.061243803	0.088390137	-1.3808786	0.19913563	-0.053020198	-0.84929733	0.079713365	0.0017252596	-1.4380199	0.25978749	-0.082384667	-0.92302426	0.03726281	0.02583587	-1.0583026	0.37638529	-0.16057149	-0.82676715	0.44523836	0.1173314	-1.0511854	0.36007336	-0.042564392	-0.863439	0.42940409	-0.0059959349	-1.0304974	0.76628215	-0.16280961	-0.97820152	0.78782464	0.17978029	-0.94742658	0.81599682	-0.12868788	-0.90826505	0.83879869	0.10965769	-1.1117934	0.90354846	0.017122003	-0.98002223	1.3149865	-0.1677803	-0.98322304	1.2858325	0.19340385	-1.0558505	1.3437328	0.013103368	-0.98960234	0.99168153	-0.24195508	-1.1188251	0.99909474	0.2353816	-0.77412839	0.86851739	-0.20567662	-1.0459489	0.77121643	0.26556938
73	0.288	-1.400157	0.072911132	-0.10607556	-0.73315894	0.036504907	0.069368624	-1.3873103	0.2039277	-0.13462861	-0.86787072	0.06115852	0.088327852	-1.3684438	0.20228412	-0.052791563	-0.84913073	0.079805819	0.001819471	-1.4267196	0.26222335	-0.082159905	-0.9230488	0.037275672	0.025861438	-1.0458436	0.37686452	-0.16099327	-0.82405381	0.44464561	0.11801597	-1.038782	0.36088706	-0.042605958	-0.86070296	0.42963319	-0.0052957509	-1.0235629	0.7675226	-0.16215537	-0.97425523	0.78846027	0.17982416	-0.94096885	0.81737926	-0.128159	-0.90237856	0.8395719	0.11051228	-1.104298	0.90460856	0.019742112	-0.97434938	1.316173	-0.16750466	-0.97692647	1.2870622	0.19380522	-1.0497109	1.3451701	0.013657372	-0.98513771	0.99279651	-0.24108438	-1.1113144	0.99967338	0.23667859	-0.77047589	0.86763597	-0.20552291	-1.0364135	0.77214961	0.26650759
74	0.292	-1.3865045	0.075276844	-0.10561508	-0.73320383	0.036451339	0.069487308	-1.3753248	0.20627933	-0.13417968	-0.86812257	0.061087467	0.088326312	-1.3547927	0.205608	-0.052894692	-0.84900349	0.079891238	0.0019311671	-1.4152245	0.26440281	-0.082033126	-0.92307939	0.037293226	0.02588494	-1.0333904	0.37753884	-0.16134357	-0.82170583	0.44398153	0.11871061	-1.0263295	0.36189875	-0.042578031	-0.85798751	0.42994254	-0.0046993893	-1.0166931	0.76880296	-0.16153301	-0.97037795	0.78914106	0.17987851	-0.93453093	0.81885957	-0.12756158	-0.89643372	0.84040737	0.11144889	-1.0972319	0.90562556	0.022030815	-0.96872863	1.3174136	-0.16723965	-0.97070663	1.2883744	0.19419829	-1.0436145	1.3466572	0.014182486	-0.9808685	0.99400046	-0.24046131	-1.1037605	1.0002952	0.23792434	-0.76717053	0.86675349	-0.20551546	-1.0270789	0.77313441	0.26746905
